<?xml version="1.0" standalone="no"?>
<!DOCTYPE svg PUBLIC "-//W3C//DTD SVG 20010904//EN"
 "http://www.w3.org/TR/2001/REC-SVG-20010904/DTD/svg10.dtd">
<svg version="1.0" xmlns="http://www.w3.org/2000/svg"
 width="512.000000pt" height="512.000000pt" viewBox="0 0 512.000000 512.000000"
 preserveAspectRatio="xMidYMid meet">
<metadata>
Created by potrace 1.13, written by Peter Selinger 2001-2015
</metadata>
<g transform="translate(0.000000,512.000000) scale(0.100000,-0.100000)"
fill="#000000" stroke="none">
<path d="M2012 4509 c-54 -27 -106 -88 -121 -142 -9 -30 -11 -184 -9 -538 l3
-496 30 -49 c19 -30 49 -60 79 -79 l49 -30 517 0 517 0 49 30 c30 19 60 49 79
79 l30 49 3 496 c2 354 0 508 -9 538 -15 54 -68 116 -122 142 -42 20 -57 21
-548 21 -493 0 -505 0 -547 -21z"/>
<path d="M1219 2654 l-564 -564 215 0 215 0 473 473 472 472 -65 29 c-48 21
-80 44 -123 91 l-59 63 -564 -564z"/>
<path d="M3254 3129 c-37 -40 -135 -87 -198 -95 l-48 -7 468 -468 469 -469
207 0 c115 0 208 2 208 4 0 7 -1063 1066 -1070 1066 -3 0 -19 -14 -36 -31z"/>
<path d="M2390 2560 l0 -470 170 0 170 0 0 470 0 470 -170 0 -170 0 0 -470z"/>
<path d="M159 1936 c-56 -20 -96 -53 -126 -104 l-28 -47 -3 -502 c-3 -497 -2
-503 19 -553 26 -61 84 -113 142 -129 30 -9 185 -11 544 -9 l501 3 43 30 c24
17 57 50 74 74 l30 43 3 510 3 510 -24 52 c-27 57 -74 100 -134 122 -54 19
-991 19 -1044 0z"/>
<path d="M2037 1936 c-58 -21 -103 -61 -131 -118 l-26 -52 0 -495 0 -496 24
-50 c25 -54 71 -100 123 -122 26 -10 136 -13 535 -13 488 0 503 1 545 21 54
26 107 88 122 142 9 30 11 184 9 538 l-3 496 -30 49 c-19 30 -49 60 -79 79
l-49 30 -501 2 c-401 2 -508 0 -539 -11z"/>
<path d="M3917 1936 c-61 -22 -108 -65 -134 -122 l-24 -52 3 -510 3 -510 30
-43 c17 -24 50 -57 74 -74 l43 -30 501 -3 c354 -2 514 1 543 9 54 14 109 60
137 112 22 42 22 44 22 557 0 570 3 540 -66 609 -68 69 -42 66 -594 68 -400 2
-507 0 -538 -11z"/>
</g>
</svg>
