<?xml version="1.0" standalone="no"?>
<!DOCTYPE svg PUBLIC "-//W3C//DTD SVG 20010904//EN"
 "http://www.w3.org/TR/2001/REC-SVG-20010904/DTD/svg10.dtd">
<svg version="1.0" xmlns="http://www.w3.org/2000/svg"
 width="582.000000pt" height="582.000000pt" viewBox="0 0 582.000000 582.000000"
 preserveAspectRatio="xMidYMid meet">
<metadata>
Created by potrace 1.13, written by Peter Selinger 2001-2015
</metadata>
<g transform="translate(0.000000,582.000000) scale(0.100000,-0.100000)"
fill="#000000" stroke="none">
<path d="M550 5303 c0 -5 0 -159 0 -343 l0 -335 1025 -3 1025 -2 0 -1025 0
-1025 1025 0 1025 0 0 -1025 0 -1025 340 0 340 0 0 1370 0 1370 -1025 0 -1025
0 0 1025 0 1025 -1365 0 c-751 0 -1365 -3 -1365 -7z"/>
<path d="M550 3253 c0 -5 0 -620 0 -1368 l0 -1360 1365 -3 1365 -2 0 345 0
345 -1025 0 -1025 0 0 1025 0 1025 -340 0 c-187 0 -340 -3 -340 -7z"/>
</g>
</svg>
